<svg width="600" height="600" viewBox="0 0 600 600" fill="none" xmlns="http://www.w3.org/2000/svg">
<g clip-path="url(#clip0_8_338)">
<path d="M0 300.5V1H299.5H599V300.5V600H299.5H0V300.5ZM311.5 496.6C349.6 489.6 385.3 470.8 413.9 442.7C446.7 410.3 466.5 370.8 473.6 323C475.2 312.8 475.4 299.6 475.7 208.3L476.1 105.2L468.8 104.6C464.8 104.3 430.7 103.6 393 103C355.3 102.5 314 101.7 301.3 101.3L278 100.7V148.9V197H330.1H382.1L381.7 257.8C381.4 315.9 381.3 318.8 379.2 326.6C368.1 368.8 336.8 399.2 297.7 405.5C271.4 409.8 245.1 405.1 223.8 392.4C214.8 387 200.9 374 194.1 364.7C189.2 358 182.2 344.2 179.1 335.3C176.6 327.7 174 313.5 174 306.9V302H129.5C92.1 302 85 302.2 85 303.4C85 304.2 85.5 309.4 86 315.1C93.9 393.3 142 457.8 213.7 486.4C224.2 490.6 242.1 495.4 253 496.9C257.1 497.5 261.6 498.2 263 498.4C269 499.4 303 498.2 311.5 496.6ZM272 249.5V204H226.5H181V249.5V295H226.5H272V249.5Z" fill="black"/>
<path d="M260 501.4C258.6 501.2 254.1 500.5 250 499.9C239.1 498.4 221.2 493.6 210.7 489.4C139 460.8 90.9 396.3 83 318.1C82.5 312.4 82 305.8 82 303.4V299H129.5H177V303.9C177 310.5 179.6 324.7 182.1 332.3C185.2 341.2 192.2 355 197.1 361.7C203.9 371 217.8 384 226.8 389.4C286.2 424.8 357.9 393.2 376.2 323.6C378.3 315.9 378.4 312.8 378.7 257.8L379.1 200H327.5C276.7 200 275.8 200 275.3 202C274.7 204.3 272 204.7 272 202.5C272 201.7 272.7 201 273.5 201C274.8 201 275 194.6 275 149.3V97.7L301.8 98.3C316.5 98.7 359.1 99.4 396.5 100C433.9 100.6 467.8 101.3 471.8 101.6L479.1 102.2L478.7 208.3C478.3 324.1 478.4 323.4 472.4 348C453.4 425.6 391 485.5 314.5 499.6C305.9 501.2 266.4 502.5 260 501.4Z" fill="white"/>
<path d="M178 249.5V201H226.5H275V249.5V298H226.5H178V249.5Z" fill="#26B6EA"/>
</g>
<defs>
<clipPath id="clip0_8_338">
<rect width="600" height="600" fill="white"/>
</clipPath>
</defs>
</svg>
