<svg width="675" height="139" viewBox="0 0 675 139" fill="none" xmlns="http://www.w3.org/2000/svg">
<path d="M105 0H7V98H105V0Z" fill="#F59A1D"/>
<path d="M209.159 104.098H218.088V114.72C217.634 115.023 217.18 115.327 216.575 115.63C215.969 115.934 215.364 116.086 214.758 116.237C214.153 116.389 213.397 116.541 212.791 116.541C212.034 116.693 211.429 116.693 210.824 116.693C209.159 116.693 207.646 116.389 206.283 115.934C204.921 115.478 203.711 114.72 202.651 113.657C201.592 112.595 200.835 111.381 200.229 109.712C199.624 108.194 199.321 106.221 199.321 104.097C199.321 101.821 199.624 100 200.381 98.3308C201.138 96.8134 202.046 95.4474 203.257 94.3852C204.467 93.323 205.678 92.7159 207.04 92.1089C208.402 91.6537 209.916 91.3499 211.278 91.3499C212.791 91.3499 214.002 91.5018 215.061 91.6531C216.121 91.8051 216.878 91.9564 217.634 92.2602L216.877 95.1436C215.666 94.6884 214.001 94.3846 211.732 94.3846C210.672 94.3846 209.613 94.5365 208.705 94.8398C207.646 95.143 206.738 95.75 205.981 96.509C205.224 97.268 204.467 98.1783 204.014 99.3924C203.56 100.606 203.257 102.124 203.257 103.793C203.257 105.462 203.408 106.828 203.862 108.042C204.316 109.256 204.921 110.166 205.678 111.077C206.435 111.836 207.343 112.443 208.403 112.746C209.462 113.049 210.521 113.353 211.732 113.353C212.489 113.353 213.246 113.353 213.851 113.201C214.608 113.049 215.213 112.898 215.667 112.594V106.524L209.462 105.917L209.16 104.096L209.159 104.098Z" fill="#F59A1D"/>
<path d="M234.737 111.382C234.737 112.292 234.888 113.051 235.19 113.355C235.493 113.81 236.098 113.962 236.704 113.962H237.763C238.066 113.962 238.52 113.81 238.974 113.659L239.428 115.935C239.126 116.087 238.974 116.087 238.671 116.238C238.369 116.39 238.066 116.39 237.612 116.541C237.309 116.541 236.855 116.693 236.552 116.693H235.644C234.433 116.693 233.374 116.39 232.618 115.783C231.861 115.176 231.558 114.114 231.558 112.596V92.1107H234.737V111.382Z" fill="#F59A1D"/>
<path d="M249.72 107.133C249.72 105.615 249.871 104.249 250.325 103.187C250.779 101.973 251.233 100.911 251.99 100.153C252.747 99.3936 253.655 98.6352 254.714 98.3314C255.773 97.8762 257.136 97.7243 258.498 97.7243C260.011 97.7243 261.222 98.0275 262.281 98.4833C263.341 98.9384 264.249 99.6974 265.006 100.456C265.763 101.366 266.216 102.277 266.67 103.49C266.973 104.705 267.276 105.918 267.276 107.284C267.276 108.801 267.124 110.016 266.67 111.23C266.216 112.444 265.763 113.354 265.006 114.264C264.249 115.023 263.341 115.782 262.281 116.086C261.222 116.541 260.011 116.693 258.649 116.693C257.136 116.693 255.773 116.389 254.714 115.934C253.655 115.478 252.747 114.72 251.99 113.961C251.233 113.051 250.779 112.14 250.325 110.926C249.871 109.712 249.72 108.498 249.72 107.133ZM253.049 107.133C253.049 108.043 253.201 108.802 253.352 109.712C253.503 110.471 253.806 111.23 254.26 111.837C254.713 112.444 255.319 113.051 255.924 113.354C256.681 113.809 257.438 113.961 258.497 113.961C262.129 113.961 263.794 111.685 263.794 107.133C263.794 106.223 263.643 105.312 263.492 104.553C263.34 103.794 263.038 103.036 262.584 102.429C262.13 101.822 261.676 101.215 260.919 100.911C260.162 100.456 259.406 100.304 258.497 100.304C256.681 100.304 255.319 100.911 254.411 101.974C253.654 103.188 253.049 104.857 253.049 107.133V107.133Z" fill="#F59A1D"/>
<path d="M280.442 92.11H283.621V100.304H283.923C284.377 99.3941 285.134 98.6352 286.193 98.3319C287.253 97.8768 288.161 97.573 289.372 97.573C291.793 97.573 293.761 98.3319 294.972 99.8493C296.333 101.367 296.939 103.643 296.939 106.678C296.939 109.864 296.031 112.292 294.366 113.81C292.701 115.479 290.28 116.237 287.253 116.237C285.739 116.237 284.377 116.086 283.167 115.934C281.956 115.631 281.048 115.327 280.442 115.024V92.11ZM288.918 100.304C288.161 100.304 287.556 100.456 286.95 100.608C286.345 100.911 285.891 101.215 285.437 101.518C284.983 101.973 284.68 102.428 284.378 102.884C284.075 103.339 283.772 103.946 283.621 104.401V113.051C284.68 113.506 286.042 113.658 287.707 113.658C289.523 113.658 290.885 113.051 291.944 111.989C293.004 110.926 293.609 109.105 293.609 106.678C293.609 105.767 293.458 104.856 293.307 104.098C293.155 103.339 292.853 102.581 292.399 101.974C291.945 101.367 291.491 100.911 290.885 100.608C290.432 100.456 289.675 100.304 288.918 100.304H288.918Z" fill="#F59A1D"/>
<path d="M309.804 99.2422C311.922 98.18 314.344 97.7249 317.522 97.7249C318.884 97.7249 319.944 97.8768 320.852 98.3319C321.76 98.6351 322.365 99.0909 322.819 99.6979C323.273 100.305 323.576 100.912 323.727 101.519C323.879 102.126 324.03 102.885 324.03 103.492C324.03 104.706 324.03 106.071 323.878 107.285C323.727 108.499 323.727 109.865 323.727 111.382C323.727 112.292 323.727 113.051 323.878 113.962C324.03 114.721 324.181 115.479 324.332 116.238H322.062L321.154 113.507H320.852C320.549 113.81 320.246 114.266 319.944 114.569C319.641 114.872 319.187 115.176 318.582 115.479C318.128 115.782 317.522 115.934 316.765 116.238C316.16 116.39 315.404 116.541 314.495 116.541C313.587 116.541 312.83 116.389 312.225 116.238C311.468 115.935 310.863 115.631 310.409 115.176C309.955 114.721 309.501 114.266 309.198 113.658C308.895 113.051 308.744 112.292 308.744 111.534C308.744 110.472 308.895 109.562 309.349 108.803C309.803 108.044 310.409 107.437 311.166 106.981C311.922 106.526 312.679 106.071 313.587 105.919C314.495 105.616 315.404 105.616 316.312 105.616H318.128C318.582 105.616 319.036 105.616 319.339 105.768C319.641 105.768 319.944 105.768 320.247 105.92H320.852C320.852 105.617 321.004 105.313 321.004 105.01V104.099C321.004 103.492 321.004 102.885 320.852 102.43C320.701 101.975 320.55 101.671 320.095 101.368C319.793 101.065 319.338 100.913 318.884 100.761C318.43 100.609 317.673 100.609 316.917 100.609C316.463 100.609 316.009 100.609 315.404 100.761C314.95 100.761 314.344 100.913 313.89 101.064C313.436 101.216 312.831 101.367 312.377 101.519C311.923 101.671 311.469 101.822 311.015 102.126L309.804 99.2428L309.804 99.2422ZM320.549 108.044C320.398 108.044 320.247 108.044 319.944 107.892C319.792 107.892 319.49 107.74 319.187 107.74H316.614C315.252 107.74 314.041 108.043 313.284 108.499C312.527 108.954 312.073 109.865 312.073 111.078C312.073 111.989 312.376 112.748 312.981 113.203C313.587 113.658 314.495 113.962 315.554 113.962C316.311 113.962 316.916 113.81 317.521 113.658C318.127 113.507 318.581 113.203 319.035 112.899C319.489 112.596 319.792 112.292 320.094 111.989C320.396 111.686 320.548 111.23 320.699 110.927L320.548 108.044H320.549Z" fill="#F59A1D"/>
<path d="M341.586 111.382C341.586 112.292 341.738 113.051 342.04 113.355C342.342 113.81 342.948 113.962 343.553 113.962H344.613C344.915 113.962 345.37 113.81 345.824 113.659L346.278 115.935C345.975 116.087 345.824 116.087 345.521 116.238C345.218 116.39 344.915 116.39 344.461 116.541C344.159 116.541 343.704 116.693 343.402 116.693H342.494C341.283 116.693 340.224 116.39 339.467 115.783C338.71 115.176 338.408 114.114 338.408 112.596V92.1107H341.586V111.382Z" fill="#F59A1D"/>
<path d="M379.422 109.864C379.422 108.954 379.12 108.195 378.514 107.588C377.909 106.981 377.153 106.526 376.244 106.222C375.336 105.767 374.277 105.463 373.217 105.16C372.158 104.856 371.099 104.401 370.191 103.794C369.283 103.187 368.526 102.58 367.921 101.669C367.315 100.759 367.013 99.6968 367.013 98.3308C367.013 96.3583 367.77 94.8404 369.131 93.6268C370.645 92.4127 372.613 91.8057 375.337 91.8057C376.85 91.8057 378.213 91.9576 379.574 92.1089C380.785 92.4121 381.845 92.564 382.601 93.0192L381.542 95.9026C380.936 95.5993 380.18 95.2955 378.969 95.1436C377.758 94.8404 376.547 94.8404 375.185 94.8404C373.672 94.8404 372.461 95.1436 371.704 95.9026C370.947 96.5096 370.493 97.2686 370.493 98.1789C370.493 99.0892 370.796 99.8481 371.401 100.303C372.007 100.91 372.763 101.365 373.671 101.821C374.579 102.276 375.639 102.58 376.698 103.035C377.757 103.49 378.817 103.945 379.725 104.552C380.633 105.159 381.39 105.766 381.995 106.676C382.6 107.435 382.903 108.498 382.903 109.863C382.903 110.925 382.751 111.987 382.297 112.746C381.844 113.657 381.238 114.416 380.481 115.023C379.724 115.63 378.816 116.085 377.605 116.54C376.546 116.843 375.184 116.995 373.822 116.995C372.005 116.995 370.341 116.843 368.979 116.54C367.768 116.237 366.708 115.933 366.103 115.63L367.162 112.595C367.768 112.898 368.524 113.202 369.735 113.505C370.946 113.809 372.157 113.961 373.519 113.961C374.276 113.961 375.032 113.961 375.789 113.809C376.546 113.657 377 113.354 377.605 113.05C378.059 112.746 378.513 112.291 378.816 111.836C379.27 111.077 379.422 110.47 379.422 109.863L379.422 109.864Z" fill="#F59A1D"/>
<path d="M394.557 107.133C394.557 105.615 394.708 104.249 395.162 103.187C395.616 101.973 396.07 100.911 396.827 100.153C397.584 99.3942 398.492 98.6352 399.551 98.3314C400.611 97.8762 401.973 97.7243 403.335 97.7243C404.848 97.7243 406.059 98.0275 407.119 98.4833C408.178 98.9384 409.086 99.6974 409.843 100.456C410.6 101.366 411.054 102.277 411.508 103.49C411.81 104.705 412.113 105.918 412.113 107.284C412.113 108.801 411.962 110.016 411.508 111.23C411.054 112.444 410.6 113.354 409.843 114.264C409.086 115.023 408.178 115.782 407.119 116.086C406.059 116.541 404.848 116.693 403.486 116.693C401.973 116.693 400.611 116.389 399.551 115.934C398.492 115.478 397.584 114.72 396.827 113.961C396.07 113.051 395.616 112.14 395.162 110.926C394.708 109.712 394.557 108.498 394.557 107.133ZM398.038 107.133C398.038 108.043 398.19 108.802 398.34 109.712C398.492 110.471 398.794 111.23 399.248 111.837C399.702 112.444 400.308 113.051 400.913 113.354C401.519 113.657 402.427 113.961 403.486 113.961C407.118 113.961 408.783 111.685 408.783 107.133C408.783 106.223 408.631 105.312 408.48 104.553C408.329 103.794 408.027 103.036 407.573 102.429C407.119 101.822 406.665 101.215 405.908 100.911C405.151 100.456 404.394 100.304 403.486 100.304C401.67 100.304 400.308 100.911 399.4 101.974C398.492 103.188 398.038 104.857 398.038 107.133V107.133Z" fill="#F59A1D"/>
<path d="M428.913 111.382C428.913 112.292 429.064 113.051 429.366 113.355C429.669 113.81 430.274 113.962 430.88 113.962H431.939C432.242 113.962 432.696 113.81 433.15 113.659L433.604 115.935C433.302 116.087 433.15 116.087 432.847 116.238C432.545 116.39 432.242 116.39 431.788 116.541C431.485 116.541 431.031 116.693 430.728 116.693H429.82C428.61 116.693 427.55 116.39 426.794 115.783C426.037 115.176 425.734 114.114 425.734 112.596V92.1107H428.913V111.382Z" fill="#F59A1D"/>
<path d="M447.982 98.0281V108.043C447.982 108.953 447.982 109.864 448.133 110.623C448.285 111.382 448.436 111.989 448.739 112.444C449.041 112.899 449.496 113.354 449.949 113.506C450.403 113.809 451.16 113.809 451.917 113.809C453.279 113.809 454.339 113.354 455.246 112.595C456.154 111.836 456.76 110.926 457.214 109.712V97.8756H460.392V110.774C460.392 111.684 460.392 112.595 460.543 113.505C460.543 114.416 460.695 115.175 460.846 115.933H458.727L457.97 112.898H457.668C457.062 113.961 456.306 114.72 455.246 115.478C454.186 116.085 452.824 116.388 451.311 116.388C450.251 116.388 449.343 116.236 448.586 116.085C447.829 115.782 447.073 115.478 446.619 114.871C446.165 114.264 445.711 113.505 445.408 112.443C445.106 111.381 445.106 110.167 445.106 108.65V98.0275H447.982V98.0281Z" fill="#F59A1D"/>
<path d="M472.803 98.0281H475.829V94.3863L479.008 93.6274V98.18H484.456V100.911H479.008V110.168C479.008 111.685 479.159 112.596 479.613 113.203C479.915 113.81 480.672 114.113 481.429 114.113C482.035 114.113 482.489 114.113 482.943 113.961C483.397 113.809 484.002 113.658 484.608 113.506L485.365 115.782C484.608 116.086 483.851 116.389 482.943 116.541C482.186 116.844 481.278 116.844 480.218 116.844C478.554 116.844 477.494 116.389 476.737 115.478C476.132 114.568 475.678 113.202 475.678 111.23V100.911H472.651L472.803 98.0275V98.0281Z" fill="#F59A1D"/>
<path d="M497.774 98.0281H500.952V116.086H497.774V98.0281ZM497.169 93.7793C497.169 93.3241 497.32 92.7171 497.774 92.4133C498.228 91.9581 498.682 91.8062 499.439 91.8062C500.045 91.8062 500.65 91.9581 501.104 92.4133C501.558 92.8684 501.709 93.3236 501.709 93.7793C501.709 94.235 501.558 94.8415 501.104 95.1453C500.65 95.6005 500.045 95.7524 499.439 95.7524C498.834 95.7524 498.228 95.6005 497.774 95.1453C497.32 94.8421 497.169 94.3864 497.169 93.7793Z" fill="#F59A1D"/>
<path d="M514.877 107.133C514.877 105.615 515.028 104.249 515.482 103.187C515.936 101.973 516.39 100.911 517.147 100.153C517.904 99.3936 518.812 98.6352 519.871 98.3314C520.931 97.8762 522.293 97.7243 523.655 97.7243C525.168 97.7243 526.379 98.0275 527.438 98.4833C528.498 98.9384 529.406 99.6974 530.163 100.456C530.92 101.366 531.374 102.277 531.828 103.49C532.13 104.705 532.433 105.918 532.433 107.284C532.433 108.801 532.281 110.016 531.828 111.23C531.374 112.444 530.92 113.354 530.163 114.264C529.406 115.023 528.498 115.782 527.438 116.086C526.379 116.541 525.168 116.693 523.806 116.693C522.293 116.693 520.931 116.389 519.871 115.934C518.812 115.478 517.904 114.72 517.147 113.961C516.39 113.051 515.936 112.14 515.482 110.926C515.028 109.712 514.877 108.498 514.877 107.133ZM518.206 107.133C518.206 108.043 518.358 108.802 518.509 109.712C518.66 110.471 518.963 111.23 519.417 111.837C519.871 112.444 520.476 113.051 521.081 113.354C521.838 113.809 522.595 113.961 523.654 113.961C527.286 113.961 528.951 111.685 528.951 107.133C528.951 106.223 528.8 105.312 528.649 104.553C528.497 103.794 528.195 103.036 527.741 102.429C527.287 101.822 526.833 101.215 526.076 100.911C525.319 100.456 524.563 100.304 523.654 100.304C521.838 100.304 520.476 100.911 519.568 101.974C518.66 103.188 518.206 104.857 518.206 107.133V107.133Z" fill="#F59A1D"/>
<path d="M558.312 116.238V106.223C558.312 104.251 558.01 102.885 557.404 101.822C556.799 100.76 555.74 100.305 554.075 100.305C552.713 100.305 551.502 100.608 550.594 101.367C549.686 102.126 549.08 103.036 548.626 104.099V116.087H545.448V98.0287H547.718L548.324 100.456H548.626C549.232 99.6974 550.14 98.939 551.199 98.3319C552.258 97.7249 553.621 97.4216 554.983 97.4216C556.042 97.4216 556.95 97.5735 557.707 97.7249C558.464 98.0281 559.22 98.3319 559.674 98.939C560.28 99.546 560.582 100.305 560.885 101.367C561.187 102.429 561.339 103.643 561.339 105.16V115.782L558.312 116.237V116.238Z" fill="#F59A1D"/>
<path d="M584.647 111.078C584.647 110.623 584.495 110.168 584.344 110.016C584.193 109.713 583.89 109.409 583.436 109.257C583.134 108.954 582.68 108.802 582.226 108.65C581.772 108.498 581.166 108.347 580.712 108.195C580.107 108.043 579.35 107.892 578.745 107.588C578.14 107.285 577.534 107.133 576.929 106.678C576.475 106.222 576.021 105.767 575.567 105.16C575.264 104.553 575.113 103.794 575.113 102.884C575.113 101.063 575.567 99.6974 576.626 98.9384C577.686 98.0281 579.199 97.5724 581.167 97.5724C582.68 97.5724 583.891 97.7243 584.799 98.0275C585.858 98.3308 586.615 98.6346 587.372 98.9378L586.615 101.669C586.009 101.366 585.253 101.062 584.344 100.759C583.436 100.456 582.528 100.304 581.469 100.304C580.409 100.304 579.501 100.456 578.896 100.911C578.29 101.214 578.139 101.973 578.139 102.883C578.139 103.339 578.29 103.642 578.441 103.946C578.593 104.249 578.895 104.401 579.198 104.705C579.501 104.856 579.955 105.008 580.409 105.16C580.863 105.312 581.317 105.463 581.923 105.615C582.68 105.767 583.284 106.07 584.041 106.222C584.798 106.525 585.403 106.829 585.858 107.132C586.463 107.587 586.917 108.042 587.22 108.65C587.522 109.257 587.825 110.016 587.825 110.926C587.825 112.595 587.22 113.961 586.16 115.023C584.949 116.085 583.284 116.54 581.015 116.54C579.501 116.54 578.29 116.388 577.231 116.085C576.172 115.782 575.264 115.478 574.507 115.023L575.415 112.291C576.02 112.595 576.928 113.05 577.836 113.353C578.744 113.657 579.804 113.809 580.863 113.809C581.923 113.809 582.83 113.657 583.587 113.202C584.344 113.05 584.647 112.291 584.647 111.077V111.078Z" fill="#F59A1D"/>
<path d="M74.4617 18.9683L60.5381 51.442L44.3441 18.9683H20.2805L11.2 28.5281H39.0472L56.6035 65.8577H64.1708L77.1865 34.4462V71.1687H87.478V26.2524L94.4398 18.9683H74.4623H74.4617ZM33.4472 71.1693H43.5872V55.8427L33.4472 35.5084V71.1687V71.1693Z" fill="white"/>
<path d="M151.648 18.9683H139.238L118.049 71.1693H130.157L133.789 61.3056H156.34L159.972 71.1693H172.382L151.648 18.9683H151.648ZM136.968 52.201L145.14 30.3493L153.01 52.201H136.968Z" fill="white"/>
<path d="M229.137 52.6561C235.947 50.2284 239.58 44.7655 239.58 35.9641C239.58 24.4312 232.466 18.817 219.904 18.817H198.564V71.0179H210.218V53.8708H217.785L227.017 71.0179H240.184L229.136 52.6567L229.137 52.6561ZM219.45 44.4617H210.37V28.5281H219.299C225.353 28.5281 228.683 30.6525 228.683 36.4186C228.683 42.1848 225.353 44.4611 219.45 44.4611V44.4617Z" fill="white"/>
<path d="M294.972 61.6089C286.345 61.6089 278.324 54.1734 278.324 45.0682C278.324 35.9629 286.345 28.6794 294.972 28.6794C300.117 28.6794 304.961 31.259 307.987 35.2046L318.733 30.3487C313.89 23.0646 305.112 18.3607 294.82 18.3607C278.778 18.3607 266.67 29.7416 266.67 44.7644C266.67 59.7871 278.778 71.4719 294.82 71.4719C305.112 71.4719 313.738 66.768 318.581 59.4839L307.836 54.7799C304.96 59.0287 300.117 61.4569 294.972 61.6089Z" fill="white"/>
<path d="M379.725 18.9683V40.9713H357.931V18.9683H346.278V71.1693H357.931V50.3798H379.725V71.1693H391.379V18.9683H379.725Z" fill="white"/>
<path d="M434.058 71.1693V18.9683H422.405V71.1693H434.058Z" fill="white"/>
<path d="M490.964 61.6089C482.337 61.6089 474.316 54.1734 474.316 45.0682C474.316 35.9629 482.337 28.6794 490.964 28.6794C496.109 28.6794 500.953 31.259 503.98 35.2046L514.725 30.3487C509.882 23.0646 501.104 18.3607 490.812 18.3607C474.77 18.3607 462.662 29.7416 462.662 44.7644C462.662 59.7871 474.77 71.4719 490.812 71.4719C501.104 71.4719 509.731 66.768 514.574 59.4839L503.828 54.7799C500.952 59.0287 496.109 61.4569 490.964 61.6089Z" fill="white"/>
<path d="M575.869 18.9683V40.9713H554.075V18.9683H542.421V71.1693H554.075V50.3798H575.869V71.1693H587.522V18.9683H575.869Z" fill="white"/>
<path d="M630.05 61.6088V49.7727H653.963V40.2129H630.05V28.5287H656.536V18.9689H618.397V71.1698H657.293V61.7613L630.05 61.6094V61.6088Z" fill="white"/>
</svg>
