<?xml version="1.0" standalone="no"?>
<!DOCTYPE svg PUBLIC "-//W3C//DTD SVG 20010904//EN"
 "http://www.w3.org/TR/2001/REC-SVG-20010904/DTD/svg10.dtd">
<svg version="1.0" xmlns="http://www.w3.org/2000/svg"
 width="64.000000pt" height="64.000000pt" viewBox="0 0 64.000000 64.000000"
 preserveAspectRatio="xMidYMid meet">

<g transform="translate(0.000000,64.000000) scale(0.100000,-0.100000)"
fill="#000000" stroke="none">
<path d="M83 629 c-17 -5 -42 -24 -55 -42 -22 -31 -23 -41 -26 -243 -4 -242 2
-282 51 -316 31 -22 38 -23 267 -23 229 0 236 1 267 23 49 34 55 74 51 316 -3
201 -4 212 -26 243 -14 20 -37 36 -60 43 -45 12 -425 12 -469 -1z m217 -159
l0 -130 -130 0 -130 0 0 107 c0 96 2 109 22 130 20 21 30 23 130 23 l108 0 0
-130z m277 108 c21 -20 23 -30 23 -130 l0 -108 -130 0 -130 0 0 130 0 130 107
0 c96 0 109 -2 130 -22z m-277 -408 l0 -130 -107 0 c-96 0 -109 2 -130 22 -21
20 -23 30 -23 130 l0 108 130 0 130 0 0 -130z m300 23 c0 -96 -2 -109 -22
-130 -20 -21 -30 -23 -130 -23 l-108 0 0 130 0 130 130 0 130 0 0 -107z"/>
<path d="M157 544 c-4 -4 -7 -18 -7 -30 0 -17 -7 -23 -27 -26 -37 -4 -37 -32
-1 -36 21 -3 27 -9 30 -30 2 -16 9 -27 18 -27 9 0 16 11 18 27 3 21 9 27 30
30 16 2 27 9 27 18 0 9 -11 16 -27 18 -20 2 -28 9 -30 29 -3 27 -18 39 -31 27z"/>
<path d="M405 480 c-13 -21 12 -31 71 -28 44 2 59 7 59 18 0 19 -119 28 -130
10z"/>
<path d="M100 228 c0 -6 10 -22 22 -35 l21 -23 -23 -25 c-18 -19 -21 -28 -12
-37 9 -9 18 -6 37 12 l25 23 25 -23 c19 -18 28 -21 37 -12 9 9 6 18 -12 37
l-23 25 23 25 c18 19 21 28 12 37 -9 9 -18 6 -37 -12 l-25 -23 -23 21 c-26 24
-47 29 -47 10z"/>
<path d="M400 205 c0 -12 14 -15 70 -15 56 0 70 3 70 15 0 12 -14 15 -70 15
-56 0 -70 -3 -70 -15z"/>
<path d="M403 138 c5 -18 129 -18 135 0 3 9 -15 12 -68 12 -53 0 -71 -3 -67
-12z"/>
</g>
</svg>
