<?xml version="1.0" standalone="no"?>
<!DOCTYPE svg PUBLIC "-//W3C//DTD SVG 20010904//EN"
 "http://www.w3.org/TR/2001/REC-SVG-20010904/DTD/svg10.dtd">
<svg version="1.0" xmlns="http://www.w3.org/2000/svg"
 width="64.000000pt" height="64.000000pt" viewBox="0 0 64.000000 64.000000"
 preserveAspectRatio="xMidYMid meet">

<g transform="translate(0.000000,64.000000) scale(0.100000,-0.100000)"
fill="#000000" stroke="none">
<path d="M162 628 c-7 -7 -12 -17 -12 -24 0 -7 -18 -15 -40 -19 -25 -4 -52
-18 -69 -36 -38 -37 -44 -86 -39 -301 5 -248 -1 -243 318 -243 321 0 313 -6
318 254 2 96 1 194 -3 217 -8 57 -48 99 -101 108 -26 5 -43 14 -49 28 -12 26
-29 25 -33 -2 -3 -19 -10 -20 -133 -20 -121 0 -129 1 -129 19 0 25 -13 34 -28
19z m-12 -110 c0 -30 15 -52 29 -44 6 4 11 20 11 37 l0 29 130 0 130 0 0 -28
c0 -34 7 -43 26 -35 8 3 14 18 14 34 0 25 4 29 27 29 36 0 73 -36 73 -72 l0
-28 -270 0 -270 0 0 28 c0 38 33 72 70 72 24 0 30 -4 30 -22z m440 -270 c0
-213 20 -198 -269 -198 -291 0 -271 -15 -271 197 l0 153 270 0 270 0 0 -152z"/>
<path d="M134 305 c-9 -22 4 -35 35 -35 35 0 56 21 39 38 -17 17 -68 15 -74
-3z"/>
<path d="M282 308 c-17 -17 4 -38 38 -38 34 0 55 21 38 38 -7 7 -24 12 -38 12
-14 0 -31 -5 -38 -12z"/>
<path d="M432 307 c-17 -20 8 -39 45 -35 42 5 39 42 -3 46 -18 2 -36 -3 -42
-11z"/>
<path d="M137 163 c-19 -18 -5 -33 32 -33 42 0 63 16 40 31 -17 10 -63 12 -72
2z"/>
<path d="M281 157 c-15 -19 -4 -27 39 -27 43 0 54 8 39 27 -15 17 -63 17 -78
0z"/>
<path d="M427 157 c-8 -21 1 -27 45 -27 32 0 39 3 36 18 -4 22 -73 30 -81 9z"/>
</g>
</svg>
